<?xml version="1.0" encoding="UTF-8"?>
<svg width="32px" height="32px" viewBox="0 0 32 32" version="1.1" xmlns="http://www.w3.org/2000/svg" xmlns:xlink="http://www.w3.org/1999/xlink">
    <!-- Generator: Sketch 49 (51002) - http://www.bohemiancoding.com/sketch -->
    <title>no image@3x</title>
    <desc>Created with Sketch.</desc>
    <defs>
        <circle id="path-1" cx="16" cy="16" r="16"></circle>
        <circle id="path-3" cx="16" cy="16" r="16"></circle>
    </defs>
    <g id="no-image" stroke="none" stroke-width="1" fill="none" fill-rule="evenodd">
        <g>
            <mask id="mask-2" fill="white">
                <use xlink:href="#path-1"></use>
            </mask>
            <use id="Mask" fill-opacity="0.02" fill="#000000" xlink:href="#path-1"></use>
            <path d="M14.7213333,18.6146667 C14.7213333,18.244887 14.7444442,17.9097793 14.7906667,17.6093333 C14.8368891,17.3088874 14.9148883,17.0315568 15.0246667,16.7773333 C15.134445,16.5231098 15.2875546,16.2862233 15.484,16.0666667 C15.6804454,15.84711 15.9346651,15.6333344 16.2466667,15.4253333 C16.4084453,15.3097772 16.5759991,15.1884451 16.7493333,15.0613333 C16.9226675,14.9342216 17.0815548,14.7897786 17.226,14.628 C17.3704452,14.4662214 17.4888884,14.2871121 17.5813333,14.0906667 C17.6737782,13.8942212 17.72,13.6746679 17.72,13.432 C17.72,12.9813311 17.5813347,12.6491122 17.304,12.4353333 C17.0266653,12.2215545 16.6800021,12.1146667 16.264,12.1146667 C15.8595535,12.1146667 15.5100015,12.2504431 15.2153333,12.522 C14.9206652,12.7935569 14.7733333,13.2471079 14.7733333,13.8826667 L12,13.8826667 C12,13.3279972 12.0924435,12.8137801 12.2773333,12.34 C12.4622231,11.8662199 12.7366648,11.4560017 13.1006667,11.1093333 C13.4646685,10.7626649 13.9124418,10.4911121 14.444,10.2946667 C14.9755582,10.0982212 15.5822188,10 16.264,10 C16.8186694,10 17.3502197,10.0722215 17.8586667,10.2166667 C18.3671137,10.3611118 18.8119981,10.5777763 19.1933333,10.8666667 C19.5746686,11.155557 19.8808877,11.5137756 20.112,11.9413333 C20.3431123,12.368891 20.4586667,12.8657749 20.4586667,13.432 C20.4586667,13.8711133 20.3922229,14.2553317 20.2593333,14.5846667 C20.1264438,14.9140016 19.9617788,15.1999988 19.7653333,15.4426667 C19.5688879,15.6853345 19.3637788,15.8904436 19.15,16.058 C18.9362212,16.2255564 18.754223,16.3728883 18.604,16.5 C18.3844433,16.6733342 18.205334,16.8293326 18.0666667,16.968 C17.9279993,17.1066674 17.8153338,17.2511104 17.7286667,17.4013333 C17.6419996,17.5515563 17.5813335,17.721999 17.5466667,17.9126667 C17.5119998,18.1033343 17.4946667,18.3373319 17.4946667,18.6146667 L14.7213333,18.6146667 Z M14.3053333,20.8853333 C14.3053333,20.6426655 14.3515551,20.4144455 14.444,20.2006667 C14.5364449,19.9868878 14.6635547,19.7991119 14.8253333,19.6373333 C14.9871119,19.4755547 15.1777767,19.3484449 15.3973333,19.256 C15.61689,19.1635551 15.8537765,19.1173333 16.108,19.1173333 C16.3622235,19.1173333 16.59911,19.1635551 16.8186667,19.256 C17.0382233,19.3484449 17.2288881,19.4755547 17.3906667,19.6373333 C17.5524453,19.7991119 17.6795551,19.9868878 17.772,20.2006667 C17.8644449,20.4144455 17.9106667,20.6426655 17.9106667,20.8853333 C17.9106667,21.1280012 17.8644449,21.3562212 17.772,21.57 C17.6795551,21.7837788 17.5524453,21.9744436 17.3906667,22.142 C17.2288881,22.3095564 17.0382233,22.4395551 16.8186667,22.532 C16.59911,22.6244449 16.3622235,22.6706667 16.108,22.6706667 C15.8537765,22.6706667 15.61689,22.6244449 15.3973333,22.532 C15.1777767,22.4395551 14.9871119,22.3095564 14.8253333,22.142 C14.6635547,21.9744436 14.5364449,21.7837788 14.444,21.57 C14.3515551,21.3562212 14.3053333,21.1280012 14.3053333,20.8853333 Z" id="?" fill="#989898" mask="url(#mask-2)"></path>
            <mask id="mask-4" fill="white">
                <use xlink:href="#path-3"></use>
            </mask>
            <circle stroke-opacity="0.08" stroke="#000000" cx="16" cy="16" r="15.5"></circle>
        </g>
    </g>
</svg>