<svg xmlns="http://www.w3.org/2000/svg" xmlns:xlink="http://www.w3.org/1999/xlink" width="32" height="32" viewBox="0 0 32 32">
    <defs>
        <circle id="a" cx="16" cy="16" r="16"/>
        <circle id="c" cx="16" cy="16" r="16"/>
    </defs>
    <g fill="none" fill-rule="evenodd">
        <mask id="b" fill="#fff">
            <use xlink:href="#a"/>
        </mask>
        <use fill="#000" fill-opacity=".02" xlink:href="#a"/>
        <path fill="#989898" d="M14.721 18.615c0-.37.023-.705.07-1.006.046-.3.124-.577.234-.832.11-.254.263-.49.459-.71.196-.22.45-.434.763-.642.161-.115.329-.237.502-.364.174-.127.333-.271.477-.433.144-.162.263-.34.355-.537.093-.197.139-.416.139-.659 0-.45-.139-.783-.416-.997-.277-.213-.624-.32-1.04-.32-.404 0-.754.135-1.049.407-.294.272-.442.725-.442 1.36H12c0-.554.092-1.068.277-1.542a3.37 3.37 0 0 1 .824-1.23 3.858 3.858 0 0 1 1.343-.815c.532-.197 1.138-.295 1.82-.295.555 0 1.086.072 1.595.217.508.144.953.36 1.334.65a3.3 3.3 0 0 1 .919 1.074c.231.428.347.925.347 1.491 0 .44-.067.823-.2 1.153-.133.329-.297.615-.494.858a3.87 3.87 0 0 1-.615.615 19.11 19.11 0 0 0-.546.442c-.22.173-.399.33-.537.468a2.1 2.1 0 0 0-.338.433 1.58 1.58 0 0 0-.182.512c-.035.19-.052.424-.052.702H14.72zm-.416 2.27c0-.242.047-.47.139-.684a1.772 1.772 0 0 1 .953-.945c.22-.092.457-.139.711-.139a1.812 1.812 0 0 1 1.283.52c.161.162.289.35.381.564.092.213.139.442.139.684 0 .243-.047.471-.139.685-.092.214-.22.404-.381.572a1.706 1.706 0 0 1-.572.39c-.22.092-.457.139-.711.139-.254 0-.491-.047-.71-.139a1.706 1.706 0 0 1-.573-.39 1.906 1.906 0 0 1-.381-.572 1.706 1.706 0 0 1-.139-.685z" mask="url(#b)"/>
        <circle cx="16" cy="16" r="15.5" stroke="#000" stroke-opacity=".08"/>
    </g>
</svg>
