<svg xmlns="http://www.w3.org/2000/svg" xmlns:xlink="http://www.w3.org/1999/xlink" width="20" height="16" viewBox="0 0 20 16">
    <defs>
        <rect id="a" width="24" height="24" rx="12"/>
    </defs>
    <g fill="none" fill-rule="evenodd" transform="translate(-2 -4)">
        <mask id="b" fill="#fff">
            <use xlink:href="#a"/>
        </mask>
        <g fill="#989898" fill-rule="nonzero" mask="url(#b)">
            <path d="M21.955 11.249v.001a2.291 2.291 0 0 1-.411 1.414 2.667 2.667 0 0 1-.96.853c.024.185.038.371.038.557 0 1-.36 1.982-.987 2.77h-.001c-1.159 1.477-2.938 2.347-4.735 2.786l-.001.001c-.958.223-1.946.337-2.934.337-1.472 0-2.944-.254-4.316-.782h-.002c-1.423-.563-2.78-1.456-3.611-2.765a4.363 4.363 0 0 1-.693-2.34c0-.186.013-.373.039-.557a2.747 2.747 0 0 1-.94-.83A2.378 2.378 0 0 1 2 11.44v-.007c0-.638.29-1.241.739-1.686.449-.445 1.062-.736 1.72-.736h.027a2.828 2.828 0 0 1 1.185.16h.002l.001.001c.269.109.536.24.773.42.078-.038.162-.082.256-.116 1.441-.818 3.117-1.133 4.75-1.224.014-.775.113-1.586.508-2.296a2.476 2.476 0 0 1 1.577-1.208l.003-.001h.004c.259-.048.52-.07.778-.07.69 0 1.372.156 2.01.4a2.473 2.473 0 0 1 1.159-.905l.004-.003.005-.001a3.04 3.04 0 0 1 .865-.132c.31 0 .624.055.917.18l.006.002c.42.155.776.442 1.029.798.252.358.4.786.4 1.227 0 .08-.004.162-.014.243v.002l-.001.004c-.05.57-.35 1.07-.777 1.425a2.451 2.451 0 0 1-1.554.574c-.091 0-.184-.005-.275-.016a2.35 2.35 0 0 1-1.48-.694c-.389-.389-.639-.909-.639-1.47l.003-.082c-.53-.226-1.094-.414-1.654-.413-.08 0-.162.004-.243.012-.42.039-.81.292-.999.656v.001c-.286.535-.343 1.16-.352 1.78 1.607.101 3.224.47 4.642 1.252h.002l.02.011.122.064c.098-.075.201-.153.319-.22a2.7 2.7 0 0 1 1.448-.41c.227 0 .453.027.672.08h.001l.01.003.008.002c.519.127.988.412 1.342.797.353.385.59.873.637 1.403zm-6.483 4.544a.655.655 0 0 0-.345-.102c-.101 0-.206.028-.3.087a6.004 6.004 0 0 1-2.948.78c-.773 0-1.54-.155-2.236-.483l-.004-.001-.004-.002c-.104-.04-.224-.128-.354-.211a1.312 1.312 0 0 0-.213-.112.578.578 0 0 0-.492.001h.001a.552.552 0 0 0-.277.222.61.61 0 0 0-.017.631c.05.09.128.167.23.22.994.642 2.165.933 3.34.932 1.06 0 2.126-.235 3.075-.663l.005-.003.005-.002c.125-.071.292-.135.449-.227a.981.981 0 0 0 .218-.174.646.646 0 0 0 .146-.26v-.001a.51.51 0 0 0-.039-.371.646.646 0 0 0-.24-.26zm-6.981-1.545l.006.002c.127.044.257.066.387.066.323 0 .637-.126.875-.333.237-.207.4-.5.4-.834v-.028-.048c0-.332-.16-.626-.395-.834a1.333 1.333 0 0 0-.873-.336c-.087 0-.175.01-.262.03h-.003-.001c-.43.086-.807.39-.946.81v.003c-.04.115-.059.233-.059.35 0 .258.089.509.242.715.152.202.366.362.624.436l.005.001zm7.78-1.534l-.001-.004-.002-.004a1.149 1.149 0 0 0-.475-.585 1.368 1.368 0 0 0-.734-.214c-.143 0-.288.025-.425.073l-.002.001h-.002c-.242.082-.45.239-.596.437-.147.199-.237.44-.237.69 0 .075.009.15.026.224h-.001v.003l.001.003c.054.29.226.534.452.704.228.171.513.271.803.271.124 0 .248-.019.37-.058l.004-.001.005-.002c.26-.07.48-.228.636-.432.158-.207.252-.46.252-.72 0-.13-.023-.26-.075-.386z"/>
        </g>
    </g>
</svg>
