<?xml version="1.0" encoding="UTF-8"?>
<svg width="24px" height="24px" viewBox="0 0 24 24" version="1.1" xmlns="http://www.w3.org/2000/svg" xmlns:xlink="http://www.w3.org/1999/xlink">
    <!-- Generator: Sketch 49 (51002) - http://www.bohemiancoding.com/sketch -->
    <title>telegram icons hover</title>
    <desc>Created with Sketch.</desc>
    <defs></defs>
    <g id="telegram-icons-hover" stroke="none" stroke-width="1" fill="none" fill-rule="evenodd">
        <g id="telegram-icons">
            <circle id="Oval-3" cx="12" cy="12" r="12"></circle>
            <path d="M17.9197642,6.08595777 L3.74693625,11.381523 C2.77961793,11.7574943 2.78535462,12.2801524 3.57062037,12.5132096 L7.10536647,13.5819795 L8.45784328,17.5989159 C8.62226475,18.0385686 8.54121205,18.2129412 9.01779257,18.2129412 C9.38558303,18.2129412 9.54874165,18.0504998 9.75358424,17.8566506 C9.88384744,17.7331628 10.6572703,17.0047243 11.5208523,16.1913444 L15.1976513,18.8229897 C15.8742318,19.1845823 16.3627595,18.9972597 16.5312338,18.2142668 L18.944767,7.19638333 C19.191873,6.23667286 18.5670814,5.80135375 17.9197642,6.08595777 L17.9197642,6.08595777 Z M7.66010487,13.3364308 L15.6274421,8.46695603 C16.0251797,8.23328713 16.3898647,8.3589168 16.0904426,8.61639625 L9.26831915,14.5792158 L9.00268747,17.3237952 L7.66010487,13.3364308 L7.66010487,13.3364308 Z" id="path9" fill="#4C4C4C"></path>
        </g>
    </g>
</svg>