<?xml version="1.0" encoding="UTF-8"?>
<svg width="24px" height="24px" viewBox="0 0 24 24" version="1.1" xmlns="http://www.w3.org/2000/svg" xmlns:xlink="http://www.w3.org/1999/xlink">
    <!-- Generator: Sketch 49 (51002) - http://www.bohemiancoding.com/sketch -->
    <title>tw hover</title>
    <desc>Created with Sketch.</desc>
    <defs>
        <rect id="path-1" x="0" y="0" width="24" height="24" rx="12"></rect>
    </defs>
    <g id="tw-hover" stroke="none" stroke-width="1" fill="none" fill-rule="evenodd">
        <g id="tw">
            <mask id="mask-2" fill="white">
                <use xlink:href="#path-1"></use>
            </mask>
            <g id="Rectangle-14"></g>
            <path d="M12.1688362,9.51927782 L12.1986077,10.0101973 L11.7024146,9.95008474 C9.89627145,9.71965313 8.31837718,8.9381894 6.97865563,7.62573108 L6.32368066,6.9745113 L6.15497498,7.45541206 C5.7977159,8.52742 6.02596476,9.65954054 6.7702545,10.4209667 C7.16720904,10.8417549 7.07789427,10.9018675 6.3931477,10.6513984 C6.15497498,10.5712482 5.94657385,10.5111356 5.92672612,10.5411919 C5.85725908,10.6113233 6.0954318,11.523031 6.2839852,11.8837065 C6.54200565,12.3846448 7.0679704,12.8755644 7.64355448,13.1661086 L8.12982378,13.3965402 L7.55423971,13.4065589 C6.99850336,13.4065589 6.97865563,13.4165777 7.03819881,13.6269718 C7.23667608,14.2781916 8.02066128,14.9694864 8.89396125,15.2700494 L9.50924078,15.4804435 L8.97335216,15.801044 C8.1794431,16.2619072 7.24659994,16.5223951 6.31375679,16.5424326 C5.86718294,16.5524514 5.5,16.5925265 5.5,16.6225828 C5.5,16.7227704 6.71071132,17.2838213 7.41530562,17.5042342 C9.52908851,18.1554539 12.0398259,17.8749285 13.92536,16.7628455 C15.2650815,15.971363 16.6048031,14.3984168 17.2300064,12.8755644 C17.5674178,12.0640443 17.9048291,10.581267 17.9048291,9.86993462 C17.9048291,9.40907139 17.9346007,9.3489588 18.4903371,8.79792668 C18.8178246,8.47732617 19.1254643,8.12666937 19.1850075,8.02648171 C19.2842461,7.83612516 19.2743223,7.83612516 18.7682053,8.00644418 C17.9246769,8.30700715 17.8055905,8.26693209 18.2223928,7.81608763 C18.5300325,7.49548712 18.8972155,6.91439871 18.8972155,6.74407969 C18.8972155,6.71402339 18.7483575,6.76411722 18.5796519,6.85428611 C18.4010223,6.95447377 18.0040678,7.10475526 17.7063519,7.19492415 L17.1704633,7.36524317 L16.684194,7.0346239 C16.4162497,6.85428611 16.0391428,6.6539108 15.8406656,6.5937982 C15.3345485,6.45353548 14.5604872,6.47357301 14.1039895,6.63387327 C12.8635066,7.08471773 12.0795214,8.24689456 12.1688362,9.51927782 Z" id="Path-6-Copy" fill="#4C4C4C" mask="url(#mask-2)"></path>
        </g>
    </g>
</svg>