<?xml version="1.0" encoding="UTF-8"?>
<svg width="24px" height="24px" viewBox="0 0 24 24" version="1.1" xmlns="http://www.w3.org/2000/svg" xmlns:xlink="http://www.w3.org/1999/xlink">
    <!-- Generator: Sketch 49 (51002) - http://www.bohemiancoding.com/sketch -->
    <title>rdt hover</title>
    <desc>Created with Sketch.</desc>
    <defs>
        <rect id="path-1" x="0" y="0" width="24" height="24" rx="12"></rect>
    </defs>
    <g id="rdt-hover" stroke="none" stroke-width="1" fill="none" fill-rule="evenodd">
        <g id="rdt">
            <mask id="mask-2" fill="white">
                <use xlink:href="#path-1"></use>
            </mask>
            <g id="Rectangle-14"></g>
            <g id="reddit-alien-head-logo" mask="url(#mask-2)" fill="#4C4C4C" fill-rule="nonzero">
                <g transform="translate(2.000000, 4.000000)" id="reddit">
                    <path d="M19.9551276,7.24862222 L19.9551276,7.25031111 C19.9581903,7.29208889 19.9590255,7.33377778 19.9590255,7.3752 C19.9590255,7.83951111 19.8035267,8.286 19.5441299,8.6648 C19.3019954,9.01928889 18.9680742,9.31586667 18.5834339,9.51711111 C18.6081206,9.70191111 18.622413,9.88817778 18.622413,10.0738222 C18.621949,11.0736 18.2620418,12.0563556 17.6353132,12.844 L17.6353132,12.8444 L17.6340139,12.8444 C16.4753596,14.3206667 14.6960557,15.1912444 12.8993968,15.6303556 L12.8989327,15.6303556 L12.8976798,15.6313778 C11.9395824,15.8541778 10.9516009,15.968 9.96389791,15.968 C8.49155452,15.968 7.02037123,15.7136889 5.6475174,15.1864444 L5.64709977,15.1852 L5.64580046,15.1852 C4.2225058,14.6232889 2.86635731,13.7301333 2.03470998,12.4214667 C1.58728538,11.7232444 1.34167053,10.9040889 1.34167053,10.0810667 C1.34167053,9.89484444 1.35480278,9.70831111 1.38078886,9.52391111 C1.0062181,9.32191111 0.681809745,9.03546667 0.440881671,8.69337778 C0.183712297,8.326 0.020649652,7.8956 4.64037123e-05,7.44062222 L4.64037123e-05,7.43884444 L4.64037123e-05,7.4372 L4.64037123e-05,7.43355556 C0.000464037123,6.79635556 0.289466357,6.19275556 0.738561485,5.74768889 C1.18761021,5.30275556 1.80102088,5.01195556 2.45897912,5.01195556 C2.46807425,5.01195556 2.47716937,5.01195556 2.4862645,5.01195556 C2.55526682,5.00746667 2.62487239,5.00488889 2.69452436,5.00488889 C3.0250116,5.00488889 3.3562413,5.05613333 3.67081206,5.17164444 L3.672529,5.17288889 L3.67429234,5.17342222 C3.94283063,5.28173333 4.20965197,5.4124 4.447471,5.59337778 C4.52454756,5.55466667 4.60858469,5.51111111 4.70287703,5.47671111 C6.14436195,4.65915556 7.81986079,4.34377778 9.45266821,4.2528 C9.46686775,3.47808889 9.5662645,2.66702222 9.96074246,1.95724444 C10.2892807,1.36751111 10.859536,0.9084 11.5384687,0.749288889 L11.5412993,0.747955556 L11.5449652,0.747555556 C11.8035731,0.699644444 12.0643155,0.677555556 12.3233411,0.677555556 C13.0133179,0.677555556 13.6950812,0.834044444 14.3330858,1.07831111 C14.6154988,0.670088889 15.0187471,0.351466667 15.4917865,0.172755556 L15.4963341,0.170266667 L15.5008817,0.168622222 C15.7785151,0.0857777778 16.0717865,0.0373333333 16.3661253,0.0373333333 C16.6766589,0.0373333333 16.989652,0.0916888889 17.282877,0.217155556 L17.282877,0.216133333 C17.2832947,0.217155556 17.2837587,0.217155556 17.2837587,0.217155556 C17.2859397,0.217866667 17.2876566,0.219111111 17.2891415,0.219111111 C17.7095128,0.374177778 18.0653364,0.660755556 18.3176334,1.01688889 C18.5701624,1.37457778 18.7187471,1.80302222 18.7187471,2.24351111 C18.7187471,2.32471111 18.7139675,2.40604444 18.7040371,2.48746667 L18.7031555,2.48911111 C18.7031555,2.49035556 18.7031555,2.49213333 18.7026914,2.49337778 C18.6533643,3.06266667 18.352297,3.56213333 17.9260789,3.9184 C17.4973086,4.27608889 16.9419954,4.49213333 16.3720186,4.49213333 C16.2806032,4.49213333 16.1883527,4.48724444 16.0965197,4.47551111 C15.5312297,4.43413333 15.0041299,4.17213333 14.616891,3.7824 C14.2283527,3.39328889 13.9780046,2.87337778 13.9780046,2.31217778 C13.9780046,2.28502222 13.9806032,2.2572 13.9814385,2.23026667 C13.4508121,2.00395556 12.8873318,1.81622222 12.3273318,1.81666667 C12.2463109,1.81666667 12.1653364,1.82093333 12.0843155,1.8288 L12.0834339,1.8288 C11.6641763,1.86751111 11.2743387,2.12062222 11.0854756,2.48466667 L11.0854756,2.48506667 L11.0854756,2.48631111 C10.7987471,3.02115556 10.7415777,3.64635556 10.7329002,4.26693333 C12.3402784,4.36733333 13.9571694,4.73675556 15.3752668,5.51751111 L15.3774478,5.51751111 L15.3977726,5.52902222 C15.4246404,5.54426667 15.4744316,5.5704 15.5194896,5.59342222 C15.6169838,5.51768889 15.7200464,5.43982222 15.8376334,5.37271111 C16.2675174,5.09848889 16.776891,4.96213333 17.2864965,4.96213333 C17.5125754,4.96213333 17.7388863,4.98973333 17.9584687,5.04364444 L17.9593503,5.04364444 L17.9684455,5.04622222 C17.9716937,5.04666667 17.9740603,5.04768889 17.9767053,5.04768889 L17.9767053,5.04808889 C18.4956381,5.17453333 18.9651044,5.45995556 19.3185615,5.84484444 C19.6717865,6.23035556 19.9093271,6.71808889 19.9556845,7.24755556 L19.9556845,7.24866667 L19.9551276,7.24866667 L19.9551276,7.24862222 Z M13.4723434,11.7932889 C13.3701624,11.7298222 13.2518794,11.6914667 13.1267285,11.6914667 C13.0258005,11.6914667 12.9209745,11.7190667 12.8276566,11.7783556 C11.9458005,12.2824444 10.9086311,12.5587111 9.87883991,12.5587111 C9.1062181,12.5587111 8.33828306,12.4025333 7.6425522,12.0752 L7.63897912,12.0735556 L7.63549884,12.0723111 C7.53058005,12.0312444 7.41104408,11.9439111 7.28064965,11.8607556 C7.21438515,11.8196444 7.14519722,11.7788 7.06839907,11.7487111 C6.99262181,11.7178222 6.90844548,11.6962222 6.81846868,11.6962222 C6.74399072,11.6962222 6.66570766,11.7121778 6.58844548,11.7457778 C6.58445476,11.7472444 6.58064965,11.7486667 6.57675174,11.7501333 L6.57716937,11.7501333 C6.45577726,11.7945333 6.36092807,11.8758667 6.2999536,11.9720889 C6.2362877,12.0712 6.2050116,12.1865778 6.2050116,12.3014667 C6.2050116,12.4052 6.23058005,12.5088889 6.28348028,12.6030667 C6.33382831,12.6922667 6.4112761,12.7702667 6.51262181,12.8225333 C7.50700696,13.4649333 8.67791183,13.7559556 9.85331787,13.7549333 C10.9130858,13.7549333 11.9792575,13.5199556 12.9284919,13.0922222 L12.9334571,13.0893333 L12.9382367,13.0868444 C13.0633875,13.0158667 13.2297448,12.9522222 13.3865429,12.8595111 C13.4640835,12.8122222 13.5398608,12.7574667 13.604826,12.6863111 C13.6697912,12.6156 13.7219954,12.5284889 13.7514617,12.4252 L13.7514617,12.4247556 C13.7638051,12.3791556 13.769652,12.3347556 13.769652,12.2903556 C13.769652,12.2059556 13.7479814,12.1258667 13.712065,12.0539111 C13.6594432,11.9455556 13.5732715,11.8568 13.4723434,11.7932889 Z M6.49071926,10.2484 C6.49243619,10.2484 6.49470998,10.2490222 6.49665893,10.2500444 C6.62357309,10.2944444 6.75438515,10.3164 6.88389791,10.3164 C7.20700696,10.3164 7.52102088,10.1896444 7.7587471,9.98306667 C7.99610209,9.77586667 8.15865429,9.48275556 8.15865429,9.14862222 C8.15865429,9.13991111 8.15865429,9.1312 8.15823666,9.12084444 C8.15911833,9.10591111 8.15953596,9.08951111 8.15953596,9.07271111 C8.15953596,8.74124444 7.99916473,8.44693333 7.76408353,8.23884444 C7.52812065,8.03057778 7.21484919,7.90324444 6.89053364,7.90324444 C6.80389791,7.90324444 6.71563805,7.91297778 6.62937355,7.93226667 C6.62807425,7.93226667 6.62709977,7.93266667 6.62580046,7.93266667 C6.62580046,7.93266667 6.62491879,7.93266667 6.62450116,7.93266667 C6.19517401,8.01875556 5.81832947,8.32391111 5.67925754,8.74368889 L5.67925754,8.74413333 C5.67925754,8.74497778 5.67883991,8.74577778 5.67883991,8.74577778 C5.63888631,8.86071111 5.62027842,8.97933333 5.62027842,9.09671111 C5.62027842,9.35391111 5.70904872,9.60453333 5.86208817,9.81066667 C6.0137819,10.0133333 6.22839907,10.1726667 6.48612529,10.2470667 C6.48798144,10.2471556 6.48886311,10.2476 6.49071926,10.2484 Z M14.2702088,8.71386667 L14.2702088,8.71391111 L14.2714153,8.71391111 C14.27058,8.71271111 14.2696984,8.71182222 14.2696984,8.71017778 C14.2688631,8.70871111 14.2688631,8.70724444 14.2679814,8.7056 C14.1809281,8.45751111 14.007239,8.25773333 13.7932715,8.12146667 C13.5767053,7.98293333 13.3198608,7.9072 13.0591183,7.9072 C12.9159629,7.9072 12.7712761,7.93151111 12.6341995,7.98004444 C12.6330858,7.98004444 12.6330858,7.98124444 12.6318329,7.98124444 C12.6318329,7.98124444 12.6309513,7.98168889 12.6300696,7.98168889 C12.3877494,8.06262222 12.1806961,8.21982222 12.0338747,8.41773333 C11.8865893,8.61688889 11.797355,8.85791111 11.797355,9.10888889 C11.797355,9.18271111 11.8060325,9.25733333 11.8229234,9.33204444 L11.8220418,9.33204444 C11.8229234,9.33324444 11.8229234,9.33408889 11.8229234,9.33493333 C11.8233411,9.33613333 11.8233411,9.33715556 11.8233411,9.338 L11.8238051,9.338 C11.8774942,9.62782222 12.0486311,9.87217778 12.27471,10.0422222 C12.5025522,10.2129778 12.7875638,10.3131556 13.0777726,10.3131556 C13.2015777,10.3131556 13.3263573,10.2944889 13.4480742,10.2546667 C13.4489095,10.2546667 13.4506729,10.2538222 13.4517401,10.2538222 C13.4528074,10.2530222 13.4549884,10.2530222 13.4571694,10.2521778 L13.4567053,10.2521778 C13.7166125,10.1824444 13.9375406,10.024 14.0934571,9.81986667 C14.2511369,9.61328889 14.3451044,9.36022222 14.3451044,9.09968889 C14.3451044,8.97026667 14.3217169,8.84 14.2702088,8.71386667 Z"></path>
                </g>
            </g>
        </g>
    </g>
</svg>