<svg xmlns="http://www.w3.org/2000/svg" width="22" height="18" viewBox="0 0 22 18">
    <g fill="none" fill-rule="evenodd" transform="translate(-4 -8)">
        <circle cx="16" cy="16" r="16"/>
        <path fill="#FFF" d="M23.893 8.115l-18.897 7.06c-1.29.502-1.282 1.199-.235 1.51l4.713 1.424 1.803 5.356c.22.586.111.819.747.819.49 0 .708-.217.98-.475l2.357-2.22 4.903 3.508c.902.482 1.553.233 1.778-.811l3.218-14.69c.33-1.28-.504-1.86-1.367-1.481zm-13.68 9.667l10.624-6.493c.53-.311 1.016-.144.617.2l-9.096 7.95-.354 3.66-1.79-5.317z"/>
    </g>
</svg>
