<svg xmlns="http://www.w3.org/2000/svg" width="16" height="13" viewBox="0 0 16 13">
    <g fill="none" fill-rule="evenodd" transform="translate(-3 -6)">
        <circle cx="12" cy="12" r="12"/>
        <path fill="#189CDE" d="M17.92 6.086L3.747 11.382c-.967.375-.962.898-.176 1.131l3.534 1.069 1.353 4.017c.164.44.083.614.56.614.368 0 .53-.163.736-.356.13-.124.903-.852 1.767-1.666l3.677 2.632c.676.362 1.165.174 1.333-.609l2.414-11.018c.247-.96-.378-1.395-1.025-1.11zm-10.26 7.25l7.967-4.869c.398-.234.763-.108.463.15l-6.822 5.962-.265 2.745-1.343-3.988z"/>
    </g>
</svg>
