<svg xmlns="http://www.w3.org/2000/svg" xmlns:xlink="http://www.w3.org/1999/xlink" width="15" height="12" viewBox="0 0 15 12">
    <defs>
        <rect id="a" width="24" height="24" rx="12"/>
    </defs>
    <g fill="none" fill-rule="evenodd" transform="translate(-5 -6)">
        <mask id="b" fill="#fff">
            <use xlink:href="#a"/>
        </mask>
        <path fill="#989898" d="M12.169 9.52l.03.49-.497-.06C9.896 9.72 8.318 8.938 6.98 7.626l-.655-.651-.169.48c-.357 1.072-.129 2.205.615 2.966.397.42.308.48-.377.23-.238-.08-.446-.14-.466-.11-.07.07.168.982.357 1.343.258.5.784.992 1.36 1.282l.486.23-.576.01c-.555 0-.575.01-.516.221.199.651.983 1.342 1.856 1.643l.615.21-.536.321a5.587 5.587 0 0 1-2.66.741c-.446.01-.813.05-.813.08 0 .1 1.21.662 1.915.882 2.114.651 4.625.37 6.51-.741 1.34-.792 2.68-2.365 3.305-3.887.337-.812.675-2.295.675-3.006 0-.46.03-.521.585-1.072.328-.32.635-.671.695-.772.1-.19.09-.19-.417-.02-.843.301-.962.26-.546-.19.308-.32.675-.902.675-1.072 0-.03-.149.02-.317.11-.179.1-.576.25-.874.34l-.536.171-.486-.33c-.268-.18-.645-.381-.843-.441-.506-.14-1.28-.12-1.737.04-1.24.45-2.024 1.613-1.935 2.885z" mask="url(#b)"/>
    </g>
</svg>
